<svg xmlns="http://www.w3.org/2000/svg" id="vector" width="24" height="24" viewBox="0 0 512 512"><path id="path_0" fill="#0052B4" d="M503.202 322.783C508.939 301.492 512 279.104 512 256L503.202 189.218C496.784 165.404 487.018 142.965 474.438 122.435L415.379 55.652C371.675 20.8387 316.323 0.0256442 256.111 0H255.889C195.677 0.0256336 140.325 20.8387 96.6209 55.652L37.5621 122.435C24.9824 142.965 15.2155 165.404 8.79798 189.218L0 256L0.0000241187 256.112C0.00992806 279.176 3.0698 301.527 8.7982 322.783L37.5622 389.565C53.2303 415.135 73.262 437.741 96.621 456.348L256 512L415.379 456.348C438.738 437.741 458.77 415.135 474.438 389.565L503.202 322.783Z"/><path id="path_1" fill="#EEE" d="M503.202 189.218C508.939 210.508 512 232.897 512 256H0C0 232.897 3.06051 210.508 8.79822 189.218H503.202Z"/><path id="path_2" fill="#EEE" d="M415.379 55.6523C438.738 74.2593 458.77 96.8658 474.438 122.435H37.5622C53.2303 96.8658 73.262 74.2593 96.621 55.6523H415.379Z"/><path id="path_3" fill="#EEE" d="M474.438 389.565C487.018 369.036 496.784 346.596 503.202 322.782H8.79796C15.2155 346.596 24.9823 369.036 37.5621 389.565H474.438Z"/><path id="path_4" fill="#EEE" d="M415.379 456.348H96.6208C140.299 491.141 195.611 511.95 255.781 512H256.219C316.389 511.95 371.701 491.141 415.379 456.348Z"/><path id="path_5" fill="#EEE" d="M0 245.585C5.46421 109.029 117.896 0 255.792 0C255.861 0 255.931 0.0000275698 256 0.000082699V256H0V245.585Z"/><path id="path_6" fill="#FFC635" d="M151.997 71.9961L173.604 130.389L231.997 151.996L173.604 173.603L151.997 231.996L130.39 173.603L71.9971 151.996L130.39 130.389L151.997 71.9961Z"/><path id="path_7" fill="#85693D" d="M151.997 71.9961V130.389H173.604L231.997 151.996H173.604V173.603L151.997 231.996V173.603H130.39L71.9968 151.996H130.39V130.389L151.997 71.9961Z"/><path id="path_8" fill="#FFC635" d="M208.566 95.4279L182.554 151.996L208.566 208.565L151.997 182.554L95.4285 208.565L121.44 151.996L95.4285 95.4279L151.997 121.439L208.566 95.4279Z"/><path id="path_9" fill="#85693D" d="M208.566 95.4279L167.276 136.718L182.554 151.996L208.566 208.565L167.276 167.275L151.997 182.554L95.4285 208.565L136.718 167.275L121.44 151.996L95.4285 95.4279L136.718 136.718L151.997 121.439L208.566 95.4279Z"/><path id="path_10" fill="#FFC635" d="M191.997 151.996A40 40 0 0 1 111.997 151.996A40 40 0 0 1 191.997 151.996Z"/></svg>