<svg xmlns="http://www.w3.org/2000/svg" xmlns:xlink="http://www.w3.org/1999/xlink" width="16" height="16" version="1.1" viewBox="0 0 16 16"><title>ALL_LOCATION_ICON</title><desc>Created with Sketch.</desc><g id="Artboard-Copy" fill="none" fill-rule="evenodd" stroke="none" stroke-width="1" transform="translate(-582.000000, -314.000000)"><path id="ALL_LOCATION_ICON" fill="#FFF" fill-rule="nonzero" d="M590,328 C593.313708,328 596,325.313708 596,322 C596,318.686292 593.313708,316 590,316 C586.686292,316 584,318.686292 584,322 C584,325.313708 586.686292,328 590,328 Z M590,330 C585.581722,330 582,326.418278 582,322 C582,317.581722 585.581722,314 590,314 C594.418278,314 598,317.581722 598,322 C598,326.418278 594.418278,330 590,330 Z M586,326 L588,320 L594,318 L592,324 L586,326 Z"/></g></svg>