<svg xmlns="http://www.w3.org/2000/svg" width="32" height="32" fill="none" viewBox="0 0 32 32"><rect width="32" height="32" fill="#1E2937" rx="16"/><rect width="31" height="31" x=".5" y=".5" stroke="#fff" stroke-opacity=".05" rx="15.5"/><path fill="#FFF" fill-rule="evenodd" d="M11.5303 10.4697C11.2374 10.1768 10.7626 10.1768 10.4697 10.4697C10.1768 10.7626 10.1768 11.2374 10.4697 11.5303L14.9393 16L10.4697 20.4697C10.1768 20.7626 10.1768 21.2374 10.4697 21.5303C10.7626 21.8232 11.2374 21.8232 11.5303 21.5303L16 17.0607L20.4697 21.5303C20.7626 21.8232 21.2374 21.8232 21.5303 21.5303C21.8232 21.2374 21.8232 20.7626 21.5303 20.4697L17.0607 16L21.5303 11.5303C21.8232 11.2374 21.8232 10.7626 21.5303 10.4697C21.2374 10.1768 20.7626 10.1768 20.4697 10.4697L16 14.9393L11.5303 10.4697Z" clip-rule="evenodd"/></svg>