<svg width="16" height="16" viewBox="0 0 16 16" fill="none" xmlns="http://www.w3.org/2000/svg">
<path d="M14.8192 4C15.437 4 15.9069 4.55463 15.8055 5.16406L14.1395 15.1641C14.0592 15.6461 13.6419 15.9999 13.1532 16H2.84752C2.35868 16 1.94156 15.6463 1.86119 15.1641L0.194199 5.16406C0.0928184 4.55465 0.562691 4 1.18053 4H14.8192ZM7.99986 12C7.39325 12 6.83639 12.2092 6.39928 12.5576L7.99986 14L9.60045 12.5576C9.21808 12.2529 8.74423 12.0546 8.22545 12.0098L7.99986 12ZM7.99986 9C6.50225 9.00004 5.1418 9.5787 4.13756 10.5205L5.26646 11.5371C5.98883 10.8929 6.94766 10.5 7.99986 10.5L8.19615 10.5049C9.17124 10.5504 10.057 10.9331 10.7342 11.5371L11.8622 10.5205C10.9207 9.63754 9.66634 9.07381 8.27916 9.00684L7.99986 9ZM7.99986 6C5.62531 6.00004 3.48769 6.99941 1.99986 8.59375L3.12486 9.6084C4.33372 8.31288 6.07044 7.50004 7.99986 7.5L8.36021 7.50879C10.145 7.60296 11.7417 8.39399 12.8749 9.6084L13.9999 8.59375C12.605 7.09903 10.6391 6.12636 8.44225 6.01074L7.99986 6Z" fill="white"/>
<rect y="1" width="16" height="2" rx="1" fill="white"/>
<rect x="5" width="6" height="2" rx="1" fill="white"/>
</svg>
